<?xml version="1.0" standalone="no"?>
<!DOCTYPE svg PUBLIC "-//W3C//DTD SVG 20010904//EN"
 "http://www.w3.org/TR/2001/REC-SVG-20010904/DTD/svg10.dtd">
<svg version="1.0" xmlns="http://www.w3.org/2000/svg"
 width="57.000000pt" height="57.000000pt" viewBox="0 0 57.000000 57.000000"
 preserveAspectRatio="xMidYMid meet">

<g transform="translate(0.000000,57.000000) scale(0.100000,-0.100000)"
fill="#000000" stroke="none">
<path d="M100 537 c1 -21 1 -21 15 -3 13 17 15 17 21 3 8 -23 44 -22 44 1 0
13 -9 17 -40 19 -35 1 -40 -1 -40 -20z"/>
<path d="M200 540 c0 -11 2 -20 5 -20 2 0 9 9 15 20 9 16 8 20 -5 20 -8 0 -15
-9 -15 -20z"/>
<path d="M330 540 c0 -11 4 -20 9 -20 5 0 7 9 4 20 -3 11 -7 20 -9 20 -2 0 -4
-9 -4 -20z"/>
<path d="M460 549 c0 -8 -12 -10 -34 -6 -22 3 -41 0 -53 -8 -16 -13 -12 -14
40 -15 50 0 57 2 57 20 0 11 -2 20 -5 20 -3 0 -5 -5 -5 -11z"/>
<path d="M290 535 c0 -8 5 -15 10 -15 6 0 10 7 10 15 0 8 -4 15 -10 15 -5 0
-10 -7 -10 -15z"/>
<path d="M230 530 c0 -5 9 -10 19 -10 11 0 23 5 26 10 4 6 -5 10 -19 10 -14 0
-26 -4 -26 -10z"/>
<path d="M533 375 c-7 -12 -51 -15 -268 -18 l-260 -2 280 -2 c154 -1 275 1
268 3 -7 3 -9 12 -6 20 7 19 -4 18 -14 -1z"/>
<path d="M188 273 c7 -3 16 -2 19 1 4 3 -2 6 -13 5 -11 0 -14 -3 -6 -6z"/>
<path d="M10 192 c0 -5 124 -8 275 -8 151 1 275 4 275 9 0 4 -124 7 -275 7
-151 0 -275 -4 -275 -8z"/>
<path d="M120 23 c0 -8 -22 -13 -57 -16 -32 -2 68 -3 222 -3 231 1 242 1 65 3
-156 3 -216 7 -222 16 -6 9 -8 9 -8 0z"/>
</g>
</svg>
